<?xml version="1.0" encoding="UTF-8"?>
<svg id="Layer_2" data-name="Layer 2" xmlns="http://www.w3.org/2000/svg" viewBox="0 0 1024 689">
  <defs>
    <style>
      .cls-1 {
        fill: #039;
      }

      .cls-1, .cls-2, .cls-3, .cls-4, .cls-5, .cls-6, .cls-7, .cls-8, .cls-9, .cls-10, .cls-11, .cls-12, .cls-13, .cls-14, .cls-15, .cls-16, .cls-17 {
        stroke-width: 0px;
      }

      .cls-2 {
        fill: #fcfcfc;
      }

      .cls-3 {
        fill: #018734;
      }

      .cls-4 {
        fill: #9cc;
      }

      .cls-5 {
        fill: #06c;
      }

      .cls-6 {
        fill: #88d18d;
      }

      .cls-7 {
        fill: #fafafa;
      }

      .cls-8 {
        fill: #01ac35;
      }

      .cls-9 {
        fill: #cdded1;
      }

      .cls-10 {
        fill: #9cf;
      }

      .cls-11 {
        fill: #39c;
      }

      .cls-12 {
        fill: #f3f3f3;
      }

      .cls-13 {
        fill: #0e110f;
      }

      .cls-14 {
        fill: #d1d2d4;
      }

      .cls-15 {
        fill: #080b09;
      }

      .cls-16 {
        fill: #fefefe;
      }

      .cls-17 {
        fill: #03c;
      }
    </style>
  </defs>
  <g id="Layer_1-2" data-name="Layer 1">
    <g>
      <path class="cls-16" d="M511.5,688.91c-168.67,0-337.34-.01-506.01.09C2.46,689,0,686.54,0,683.5.1,457.5.1,231.5,0,5.49,0,2.46,2.46,0,5.49,0c337.67.1,675.34.1,1013.01,0,3.04,0,5.5,2.46,5.5,5.5-.1,226.3-.1,452.61,0,678.91,0,3.75-.84,4.6-4.59,4.59-169.3-.11-338.6-.09-507.91-.09ZM427.33,495.33c-.12.39-.5.63-.91.62-5.52-.23-10.65,1.82-15.84,3.17-8.01,2.08-16.05,4.4-23,9.15-7.69,5.26-7.39,11.62.62,16.25,2.72,1.58,5.44,3.25,8.36,4.37,14.15,5.41,28.94,7.96,43.88,10.33,19.33,3.07,38.75,4.04,58.22,4.59,18.35.52,36.68-.12,55-1.75,16.35-1.45,32.59-3.34,48.55-7.18,10.47-2.52,20.98-5.02,29.96-11.5,5.7-4.11,5.81-10.06.1-14.22-1.6-1.17-3.34-2.19-5.12-3.08-11.67-5.89-24.25-8.67-37.01-10.84-.34-.06-.62-.31-.71-.65-4-14.19-10.03-19.11-24.07-19.41-2.37-.05-2.32-.76-1.97-2.59.68-3.58,1.22-7.2,1.62-10.83,2.87-26.35-.4-52.54-2.52-78.72-1.44-17.7.16-34.79,5.45-51.65.39-1.24.96-2.02,2.01-2.64,16.39-9.75,31.45-21.66,48.85-29.76,1.94-.9,3.67-1.08,5.71-.56,6.87,1.76,13.43.4,18.89-3.79,3.49-2.68,6.73-2.86,10.59-2.14,5.18.96,10.35.63,15.16-1.53,6.23-2.8,6.92-9.81,1.66-14.11-.71-.58-1.7-.82-2.39-1.48-.47-.45-.32-1.24.28-1.49,5.79-2.39,12.4-4.37,11.9-12.51-.41-6.72-4.86-9.46-11.39-9.69-.8-.03-1.19-.98-.62-1.54.68-.67,1.18-1.17,1.65-1.68,4.11-4.42,4.84-8.46,2.29-12.59-2.82-4.57-8.03-6.4-13.5-4.44-1.57.56-3.05,1.39-4.52,2.22-1.17-.87-1.31-.97-2.48-1.84,0-.01,0-.02,0-.04,1.8-7.29.81-10.76-3.7-12.93-5.62-2.71-11.1-1.16-15.31,4.36-2.22,2.91-3.81,6.19-5.39,9.48-3.16,6.57-7.64,12.23-12.35,18.44-.44.58-1.35.43-1.57-.27-2.83-8.84-9.01-13.02-17.76-13.99-2.66-.29-1.55-1.77-1.26-3.2,2.42-12.01,2.77-23.99.5-36.14-6.88-36.79-36.56-66.31-73.15-72.38-37.96-6.29-75.24,11.12-94.06,44.07-10.96,19.18-14.45,39.71-10.45,61.46.36,1.95.96,3.14-2.08,3.5-8.54,1.01-14.9,5.07-17.75,14.1-.22.7-1.14.85-1.58.26-5.02-6.82-9.92-12.9-13.18-20.15-1.84-4.09-3.97-8.07-7.56-10.98-4.14-3.37-8.65-3.12-13.05-.79-4.09,2.17-4.15,6.06-3.49,10.03.11.67.26,1.33.41,2l-2.77,2.18c-1.88-.96-3.75-1.95-5.75-2.47-4.84-1.28-8.86.43-11.64,4.64-2.79,4.23-1.73,8.15,1.16,11.91.75.98,1.92,1.63,2.71,2.64.44.57.08,1.4-.63,1.46-6.59.53-9.99,2.64-11.09,7.27-2.25,9.52,4.62,12.2,11.31,14.99.65.27.74,1.16.16,1.57-4.87,3.42-6.33,6.07-5.59,9.46.94,4.27,4.98,7.24,11.07,7.68,3.99.29,8.04.56,11.98-.42,2.16-.53,4.42-.01,6.15,1.38,5.47,4.42,11.8,6.17,18.82,5.15,2.38-.34,4.47,0,6.69,1.06,19.46,9.26,36.39,22.66,54.91,33.45,1.36.79,2.75,2.68,3.12,4.21,2.04,8.5,4.76,16.85,5.09,25.71.61,16.03-1.46,31.9-2.54,47.83-1.45,21.43-3.03,42.86,1.15,64.16.64,3.27-.93,2.67-2.88,2.54-9.83-.67-16.5,4.1-20.73,12.57-1.21,2.41-1.83,5.12-2.66,7.72ZM323.04,533.15c0,4.48.27,8.98-.08,13.43-.33,4.2,1.88,4.99,5.08,4.28,7.61-1.68,14.36-4.97,19.25-11.1,3.66-4.6,2.89-11.39-1.83-14.9-5.99-4.46-13.22-6.11-20.22-8.26-2.64-.81-2.16,1.27-2.17,2.61-.06,4.64-.02,9.29-.03,13.94Z"/>
      <path class="cls-15" d="M653.62,233.73c2.2-1.14,4.31-2.55,6.63-3.38,5.47-1.95,10.68-.12,13.5,4.44,2.55,4.13,1.82,8.18-2.29,12.59-.77.83-1.6,1.62-3.21,3.23,7.7-.32,13.12,2.23,13.57,9.68.52,8.59-6.86,10.32-12.86,12.91.51,1.61,2.07,1.75,3.07,2.57,5.26,4.31,4.57,11.32-1.66,14.11-4.81,2.16-9.98,2.5-15.16,1.53-3.86-.72-7.1-.54-10.59,2.14-5.46,4.19-12.02,5.54-18.89,3.79-2.05-.52-3.77-.34-5.71.56-17.4,8.1-32.47,20.01-48.85,29.76-1.05.62-1.62,1.4-2.01,2.64-5.28,16.86-6.88,33.95-5.45,51.65,2.13,26.17,5.4,52.37,2.52,78.72-.4,3.63-.94,7.25-1.62,10.83-.35,1.84-.4,2.54,1.97,2.59,14.22.3,20.22,5.35,24.22,19.96.6,17.8-10.48,30.63-28.14,32.58-22.63,2.49-45.62-13.7-50.87-35.82-.34-4.66-.33-9.3.21-13.95,1.56-13.58,2.29-27.18,1.46-40.87-.18-3.05-1.65-2.86-3.79-2.92-2.25-.06-3.76-.1-3.71,2.94.1,5.31-.26,10.64-.36,15.96-.24,12.99,2.99,25.81,1.98,38.84-1.48,7.66-4.47,14.58-10.13,20.11-8.69,8.5-19.07,13.64-31.1,15.47-21.26,3.23-37.3-10.04-38.05-31.49.94-2.8,1.57-5.76,2.87-8.38,4.23-8.47,10.9-13.24,20.73-12.57,1.95.13,3.52.74,2.88-2.54-4.18-21.3-2.6-42.73-1.15-64.16,1.08-15.93,3.15-31.8,2.54-47.83-.35-9.23-3.29-17.91-5.35-26.78-.32-1.37-1.31-2.24-2.52-2.94-18.65-10.82-35.67-24.33-55.25-33.64-2.22-1.06-4.31-1.4-6.69-1.06-7.13,1.03-13.55-.79-19.08-5.37-1.72-1.43-3.3-1.87-5.45-1.29-4.07,1.11-8.28.83-12.42.53-6.08-.44-10.13-3.41-11.07-7.68-.81-3.69,1-6.5,6.95-10.39-7.11-3.07-15.26-5.38-12.84-15.64,1.17-4.93,4.95-7.01,12.42-7.36-.52-1.94-2.36-2.67-3.41-4.02-2.89-3.75-3.95-7.67-1.16-11.91,2.77-4.21,6.79-5.91,11.64-4.64,2.68.71,5.13,2.25,7.68,3.42.47.33.93.65,1.4.98.5-.77.21-1.5-.13-2.23-.29-1.29-.63-2.57-.85-3.88-.66-3.97-.6-7.86,3.49-10.03,4.4-2.34,8.9-2.59,13.05.79,3.58,2.92,5.72,6.9,7.56,10.98,3.5,7.77,8.87,14.21,14.27,21.64,2.56-10.25,9.17-14.78,18.24-15.84,3.04-.36,2.44-1.55,2.08-3.5-4-21.75-.51-42.28,10.45-61.46,18.83-32.95,56.1-50.37,94.06-44.07,36.59,6.07,66.27,35.59,73.15,72.38,2.27,12.15,1.92,24.13-.5,36.14-.29,1.43-1.4,2.91,1.26,3.2,9.3,1.03,15.69,5.69,18.25,15.69,5.1-6.78,10.03-12.8,13.43-19.87,1.58-3.29,3.16-6.57,5.39-9.48,4.21-5.52,9.69-7.07,15.31-4.36,4.52,2.18,5.51,5.64,3.7,12.93-.16.65-.25,1.31-.38,1.96-.56.37-.77.88-.33,1.41.09.11.71-.22,1.08-.35ZM647.24,286.96l-.08.05c1.12.33,1.8-.31,2.44-1.07.9-.35,1.79-.69,4.07-1.57-5.2,5.96-.68,4.59,1.75,4.39,3.6-.29,7.27-.39,10.7-1.8,6.06-2,6.83-4.46,2.61-8.31-4.3-3.58-9.44-4.08-14.93-4.57,5.19-1.77,10.39-3.54,15.58-5.31.46-.11,1.04-.08.85-.84l-.07.09c4.25-.71,7.56-2.7,7.38-7.44-.14-3.69-2.3-6.05-6.44-5.7-6.15-.78-11.88,1.34-17.83,2.68,3.45-4.19,8.81-5.98,11.9-10.37,3.61-1.81,6.57-4.43,5.54-8.73-.83-3.5-3.66-5.37-7.6-4.44-4.48.57-7.89,3.23-11.31,5.82-3.55,2.68-6.98,5.51-10.46,8.28-.17-.18-.34-.35-.52-.53,2.56-4.73,7.15-8.39,7.55-14.26,1.43-1.74,1.75-3.85,1.91-5.98.39-5.49-4.08-8.54-9.03-6.03-2.72,1.38-4.41,3.86-5.63,6.63-4.29,8.24-9.3,16-15.82,22.66-2.25,2.3-2.77,3.37.69,5.02,4.51,2.15,5.43,4.23,4.68,7.51-4.48-4.44-9.98-6.54-16.17-7.05-.2-.44-.41-.88-.61-1.32,1.27-1.34,5.05.08,3.85-4.07-1.77-6.09-10.4-12.02-16.52-10.89-1.27.23-2.14.77-2.34,2.12-.51,1.51-.44,3.06.53,4.27,5.88,7.38,7.45,15.96,7.74,25.12.17,5.3,3.34,8.45,8.92,8.76.95.05,1.87.53,2.81.81-7.16,2.56-12.3-.13-14.97-7.66-.37-1.04.58-3.83-2.11-2.7-1.87.78-.85,2.47-.1,3.83,3.94,7.13,8.62,13.71,13.69,20.1,3.09,3.9,5.58,3.56,8.96,1.04-1.17-1.8-3.8-2.02-3.96-4.44,2.03.38,4.06.76,6.09,1.13,9.25,3.48,17.61,1.72,25.27-4.25l-.05.04c.64-.05,1.24-.15,1.06-1.04ZM346.15,275.94l.05-.07c-4.63,2.1-4.94,3.6-1.46,7.02,4.14,3.07,9.07,2.62,13.81,3.22,3.55.45,3.83-1.02,2.81-4.34,10.98,9.03,22.69,11.96,35.82,7.03.8.26,2.49.18.92,1.58-1.36,1.22-3.01,2.11-5.4,3.75,3.58.34,5.72,3.16,8.38.57,6.84-6.65,11.88-14.62,16.55-22.84.76-1.33.88-2.79-.72-3.3-1.9-.6-1.38,1.28-1.66,2.22-2.21,7.36-7.51,9.96-14.85,7.25,9.59-1.25,10.94-2.71,12.03-12.3.59-5.24.83-10.56,2.95-15.51,2.26-1.83,3.41-4.43,4.69-6.92.74-1.44,1.7-3.01.38-4.61-1.43-1.74-3.19-2.24-5.24-1.01-5.67.47-9.89,3.24-12.53,8.22-1.19,2.24-2.85,4.8,1.44,5.99,1.67.46.59,1.4-.13,2.07-6.26-.57-10.74,3.45-15.76,6.11-.38-4.4,3.12-5.81,5.99-7.6,1.4-.87,2.83-1.37,1-3.16-7.45-7.26-12.61-16.16-17.85-25-.14-.67-.29-1.33-1.15-1.41l.07.05c-1.23-3.68-3.88-5.2-7.62-4.83-2.89.28-5.19,1.36-5.15,4.84.19,8.41,4.58,15.03,9.15,21.58-.23.21-.45.42-.66.65-4.96-2.97-8.46-7.88-13.8-10.33-2.14-2.21-4.89-3.28-7.8-3.69-5.2-.74-8.33,3.5-6.48,8.56,3.8,7.66,12.46,9.93,18.66,16.5-5-1.02-8.51-3.86-12.81-3.31-2.08-1.49-4.46-.84-6.72-.91-3.11-.09-5.49,1.23-6.5,4.3-1,3.03-.17,5.52,2.68,7.19,6.06,4.75,14.02,4.83,20.69,8.46-4.46-.08-8.78-.02-12.43,2.85-.65.14-1.42.14-1.35,1.14ZM478.17,310l-.13.04c-.26,2.21,1.3,3.68,2.21,5.4,2.81,5.27,5.77,10.47,7.18,16.35-2.6,1.11-2.57-1.28-3.18-2.53-3.79-7.76-7.71-15.44-12.74-22.5-1.88-3.31-3.96-6.53-5.59-9.96-1.69-3.55-4.28-5.45-8-6.7-9.3-3.11-18.28-7.09-26.7-12.14-3.27-1.96-4.01-.63-4.25,2.3-3.69,7.07-7.81,13.83-13.84,19.21-1.33,1.19-1.44,1.89.35,2.81,3.53,1.81,6.93,3.86,10.38,5.81.74.63,1.46,1.31,2.24,1.9,8.95,6.66,18.81,12.02,27.42,19.15,2.16,1.8,4.74,3.37,5.77,6.24-.52.33-.69.51-.79.48-1.07-.34-2.12-.72-3.18-1.09-.2-.22-.55-.65-.58-.63-.58.41-.31.78.12,1.11,4.81,13.95,7.18,28.24,5.7,43.01-.24,2.42.54,3.03,2.74,2.35,3.31-1.03,6.64-2.04,9.96-3.05,3.43,0,6.2-4.34,10.04-1.51-3.22,2.71-7.38,3.35-11.04,5.08-2.74.59-5.45,1.51-8.21,1.67-2.98.18-3.86,1.31-3.96,4.23-.25,7.85-.39,7.87,7.53,5.72,1.57-.43,3.06-1.14,4.58-1.72,7.26-1.34,13.61-4.9,20-8.34,2.47,2.23-.4,2.61-1.32,3.29-5.9,4.4-12.96,6.27-19.69,8.86-3.09.6-6.16,1.36-9.27,1.74-2.16.27-2.61,1.34-2.73,3.27-.84,13.76-2.22,27.49-2.37,41.3q-.1,9.6,9.38,11.65c10.8,3.53,22.06,4.45,33.23,5.93,2.47.33,2.62-.85,2.69-2.79.19-5.14.52-10.27.93-15.39.6-7.45.64-7.43-6.44-10.26-.6-.24-1.72-.17-1.45-2.49,13.6,3.44,25.84-.11,36.78-9.05.14.42.28.84.43,1.27-.45.86-.9,1.71-1.35,2.57-1.51,1.29-3.19,2.42-4.48,3.89-3.04,3.48-9.58,3.3-10.64,7.68-1.06,4.41.84,9.48,1.13,14.27.62,10.35.53,10.35,11.13,8.45,10.2,0,20.12-1.93,30.03-4.11,3.66-.8,4.54-2.58,4.5-6.15-.2-14.8-1.66-29.53-2.22-44.29-.22-5.71-2.3-7.02-7.34-7.47-9.16-.82-17.88-3.56-25.96-8.08-.79-.44-3.03-.77-.92-2.47,1.25.44,2.52.81,3.74,1.32,8.47,3.51,17.18,6.11,26.3,7.24,1.16.14,2.99.92,3.22-1.09.18-1.53.2-3.43-2.08-3.91-1.13-.24-2.25-.57-3.35-.94-6.91-2.35-13.78-4.78-19.2-10,.6-2.81,1.93-1.09,2.99-.44,6.54,4.04,13.45,7.18,21.51,9.26-2.38-18.7-.67-36.67,5.65-54.38-4.23,2.87-8.47,5.74-12.7,8.61,2.91-5.51,7.26-9.39,12.08-12.66,11.42-7.75,22.52-16,34.56-22.81,1.61-.91,3.01-1.45.8-3.41-5.44-4.8-9.04-10.99-12.45-17.28-1.82-5.92-1.74-5.76-7.01-3.13-6.06,3.03-12.26,5.8-18.45,8.55-1.87.83-3.44,1.77-4.52,3.6-3.28,5.55-6.64,11.05-8.93,17.11-4.22,8.32-6.93,17.23-10.26,25.9-.32.85.21,3.27-2.23,2.01,1.79-8.94,5.18-17.37,8.16-25.94,3.36-6.34,6.72-12.68,10.09-19.02.12-.05.26-.08.35-.16.05-.05.04-.17.05-.27-.13.15-.25.3-.38.45-3.58-.35-6.65,1.67-10.06,2.24-2.33.38-5.15.83-6.45,3.22-2.75,5.04-6.34,9.68-7.66,15.43-2.91,3.7-3,8.69-5.75,12.46-1.83-.53-1.41-1.83-1.03-3.08.7-2.33,1.44-4.66,2.16-6.99,2.74-5.77,5.26-11.65,9.19-17.57-6.97.89-13.02,3.13-20.64,1.98,14.37-2.83,27.28-6.26,38.32-14.45,27.34-15.03,44.35-52.8,38.47-85.42-8.39-46.53-49.25-76.6-96.08-69.56-28.7,4.32-49.78,20.2-62.55,46.57-9.16,17.93-10.82,36.78-6.28,56.15,8.22,35.11,36.33,60.02,73.72,65.74,1.9.29,3.89.2,5.03,1.96-6.47,1.33-12.69-.86-19.49-1.7,2.88,4.62,5.5,8.8,8.12,12.99,1.42,3.33,2.85,6.66,4.25,10.01.62,1.47,1.82,3.01-.31,4.3-3.46-4.85-4.81-10.85-8.52-15.57-3.35-10.23-10.53-15.76-21.89-17.44,3.6,5.28,6.83,10.02,10.06,14.76.31.54.58,1.12,1.37,1.01ZM469.28,467.87c-.34-.29-.68-.59-1.02-.88-2.87-.78-5.75-1.55-8.62-2.36-.8-.23-1.59-.58-2.11.43-1.19,2.31,2.13,10.63,4.6,11.94,5.11,2.7,10.36,5.24,14.07,9.92-1.95.65-3.03-.97-4.44-1.7-4.71-2.43-9.15-5.49-14.54-6.39-7.74-2.77-13.93-1.28-19.1,4.58-7.96,9.04-6.17,23.17,4,31.59,1.6,2.02,3.76,3.21,6.11,4.1,14.26,5.42,26.96,1.41,39.01-6.46,14.48-8.79,17.06-22.44,15.83-37.89-.38-4.76-1.69-7.02-6.69-5.41-9.04-.52-18.08-1.04-27.13-1.56l.02.08ZM443.98,276.6c-.25.18-.5.36-.76.53.13.12.26.23.39.35.11-.3.23-.6.34-.9-9.58-7.76-15.11-18.41-20.56-29.46-3.63,4.23-5.85,8.5-6.47,13.65-.27,2.21.26,3.32,2.2,4.31,7.1,3.63,14.13,7.41,21.18,11.13,1.17.62,2.34,1.39,3.68.37ZM557.31,521.31c7.97.49,15.21-1.14,20.95-7.16,4.71-3.69,6.99-8.79,7.73-14.5,1.99-15.3-10.37-25.52-25.02-20.87-3.97,1.26-7.58,3.26-11.26,5.15-2.13,1.09-3.7,3.35-6.44,3.17,1.24-3.54,5.58-4.05,7.13-7.29,9.56-2.15,12-5.3,10.46-13.85-2.15.87-4.26,1.72-6.37,2.57-8.64,1.92-17.4,2.61-26.22,2.61-13.98-.75-11.83-1.76-12.03,10.26-.37,22.06,18.66,40.38,41.09,39.91ZM590.5,249.75c-2.79,5.45-5.39,10.44-8.72,15-3.4,4.65-6.94,9.17-11.82,13.2,1.49-.09,2.61.15,3.39-.26,7.36-3.8,14.64-7.77,22.01-11.57,1.76-.9,1.76-2.09,1.49-3.69-.81-4.72-3.01-8.73-6.36-12.69Z"/>
      <path class="cls-14" d="M428.31,494.92c.74,21.45,16.78,34.72,38.05,31.49,12.03-1.83,22.41-6.97,31.1-15.47,5.66-5.54,8.64-12.46,10.13-20.11,1.4-1.84,2.8-1.83,4.2,0,5.25,22.12,28.24,38.31,50.87,35.82,17.66-1.95,28.74-14.78,28.14-32.58,12.95,2.18,25.72,4.97,37.56,10.94,1.77.89,3.51,1.91,5.12,3.08,5.71,4.16,5.6,10.11-.1,14.22-8.98,6.48-19.49,8.98-29.96,11.5-15.96,3.84-32.21,5.72-48.55,7.18-18.32,1.63-36.65,2.27-55,1.75-19.46-.55-38.89-1.52-58.22-4.59-14.93-2.37-29.72-4.92-43.88-10.33-2.92-1.12-5.64-2.79-8.36-4.37-8.02-4.64-8.31-10.99-.62-16.25,6.95-4.76,14.98-7.08,23-9.15,5.41-1.4,10.75-3.57,16.53-3.13Z"/>
      <path class="cls-2" d="M535.93,337.89c2.44,1.26,1.91-1.16,2.23-2.01,3.33-8.67,6.03-17.58,10.26-25.9,7.27-1.92,13.9-5.2,20.36-9.03,7.45-4.41,12.5-11.26,18.55-17.11,3.41,6.29,7.01,12.48,12.45,17.28,2.21,1.96.81,2.5-.8,3.41-12.04,6.81-23.14,15.06-34.56,22.81-4.82,3.27-9.17,7.15-12.08,12.66,4.23-2.87,8.47-5.74,12.7-8.61-6.32,17.71-8.03,35.67-5.65,54.38-8.06-2.08-14.97-5.22-21.51-9.26-1.06-.65-2.39-2.38-2.99.43-.67-.41-1.32-1.56-2.08-.93-2.62,2.16-5.09,4.51-7.54,6.85-.07.07.65.96,1,1.46-2.11,1.7.13,2.03.92,2.47,8.07,4.52,16.79,7.26,25.96,8.08,5.04.45,7.12,1.76,7.34,7.47.56,14.76,2.02,29.49,2.22,44.29.05,3.58-.84,5.35-4.5,6.15-9.91,2.18-19.83,4.1-30.03,4.11.21-1.8.41-3.6.62-5.4,1.12-9.6,4.18-19.06,2.23-28.9.45-.86.9-1.71,1.35-2.57-.14-.42-.28-.84-.43-1.27-10.94,8.94-23.18,12.49-36.78,9.05-.27,2.31.85,2.25,1.45,2.49,7.08,2.82,7.04,2.8,6.44,10.26-.41,5.12-.74,10.26-.93,15.39-.07,1.94-.22,3.12-2.69,2.79-11.17-1.49-22.43-2.4-33.23-5.93-.35-8.76.87-17.39,1.69-26.08,1.01-10.64,3.46-21.12,3.3-31.87,6.73-2.59,13.79-4.46,19.69-8.86.92-.69,3.79-1.06,1.32-3.29-2.63-2.66-4.3-6.62-8.9-6.66-3.85-2.83-6.62,1.52-10.04,1.51-.37-5.96-.44-11.95-1.19-17.86-.77-6.06-2.03-12.06-4.36-17.8-5.2-12.82-15.36-20.63-27.1-26.63-5.38-2.75-10.29-6.84-16.75-7.17-3.45-1.95-6.86-4.01-10.38-5.81-1.8-.92-1.68-1.62-.35-2.81,6.03-5.38,10.15-12.14,13.84-19.21,1.58,3.77,5.11,5.64,8.09,7.87,11.06,8.28,22.75,15.45,36.45,18.61,5.03,7.06,8.95,14.74,12.74,22.5.61,1.25.58,3.64,3.17,2.53.41.62.83,1.24,1.24,1.86,2.1-3.09,6.77-2.79,8.47-6.41,2.13-1.29.92-2.83.31-4.3-1.4-3.34-2.83-6.67-4.25-10.01,8.97,1.83,18.05,2.27,27.18,2.04,1.73-.04,3.73-.66,5.02,1.25-.72,2.33-1.46,4.65-2.16,6.99-.38,1.25-.8,2.55,1.03,3.08.08,1.12-.23,2.93.32,3.25,3.78,2.17,6.05,5.9,9.3,8.6,1,.83,1.39,0,2.04-.25Z"/>
      <path class="cls-7" d="M432.1,177.78c12.77-26.37,33.85-42.26,62.55-46.57,46.83-7.05,87.69,23.02,96.08,69.56,5.88,32.61-11.13,70.39-38.47,85.42-.56-1.04-1.5-1.23-2.55-1.11-13.75,1.5-27.46.98-41.24.04-14.19-.96-27.53-4.37-39.77-11.48-9.22-5.36-17.64-11.79-22.53-21.75,7.8,1.77,15.58.98,23.27-.53,22.51-4.42,45.04-6.65,67.87-2.36,8.81,1.66,17.69,3.25,26.74,2.83,12.76-.6,20.05-9,19.02-21.71.04-1.69.09-3.39.13-5.08,1.58-2.89,1.29-5.93.76-9-.61-8.33-2.02-16.49-4.83-24.39-18.84-53.02-82.01-68.97-121.89-30.71-12.89,12.37-20.46,27.67-24.16,45.02-1.26-.97-.92-2.38-.93-3.65-.04-8.17-.04-16.34-.06-24.51Z"/>
      <path class="cls-11" d="M349.33,252.8c4.12-.55,7.48,2.28,12.27,3.3-5.93-6.56-14.23-8.82-17.87-16.46.6-2.03,1.9-3.45,3.74-4.26,3.23-1.42,6.61-.45,9.93-.59,5.12,2.45,8.47,7.34,13.22,10.31.38.27.76.53,1.13.8.19.14.38.29.57.43-.16-.17-.33-.33-.49-.5-.19-.46-.38-.92-.58-1.38-4.38-6.53-8.59-13.13-8.77-21.52,4.08-1.98,8.15-1.48,12.23,0,0,0-.07-.05-.07-.05.37.47.73.93,1.1,1.4,5.02,8.81,9.96,17.69,17.09,24.93,1.75,1.78.38,2.28-.96,3.15-2.75,1.79-6.1,3.2-5.73,7.58,0,0,.05-.09.05-.09-.7-.09-.76.43-.83.93,1.07,1.91,2.7,1.14,3.64.29,3.64-3.27,8.18-4.77,12.23-7.23.68-.66,1.72-1.6.12-2.06-4.11-1.19-2.52-3.74-1.38-5.98,2.53-4.97,6.57-7.73,12-8.2.06,4.17.11,8.34.17,12.51-2.03,4.94-2.26,10.25-2.83,15.47-1.04,9.57-2.34,11.02-11.52,12.27-3.5-.54-4.76,1.05-3.64,4.45.69,2.09.55,4.17.55,6.28-12.57,4.92-23.78,1.99-34.29-7.01.98,3.31.71,4.78-2.69,4.33-4.54-.6-9.25-.15-13.21-3.22-.14-2.46.67-4.72,1.39-7,0,0-.05.07-.05.07.43-.38.86-.76,1.29-1.14,3.49-2.87,7.63-2.92,11.9-2.84-6.39-3.62-14.01-3.71-19.81-8.44-.24-4.21,1.08-7.42,5.18-8.87,1.63-.57,3.28-1.13,4.91-1.69Z"/>
      <path class="cls-11" d="M608.38,254.78c.2.44.41.88.62,1.32,2.58,3.46,6.87,4.08,10.29,6.13,1.67,1,3.62,2.56,5.87.92.75-3.28-.17-5.36-4.68-7.51-3.46-1.65-2.94-2.73-.69-5.02,6.52-6.65,11.53-14.42,15.82-22.66,8.12-3.36,10.6-2.32,12.76,5.37-.4,5.87-4.99,9.53-7.55,14.26-.35.33-.85.65-.17,1.09.07.05.45-.37.68-.57,3.48-2.77,6.92-5.6,10.46-8.28,3.42-2.59,6.84-5.26,11.31-5.82,3.67,2.98,4.37,6.59,2.34,10.82-.34.71-1.69,1.4-.28,2.35-3.09,4.4-8.44,6.18-11.9,10.37,5.95-1.34,11.68-3.47,17.83-2.68,4.12,4.7,2.33,8.97-.94,13.13,0,0,.07-.09.07-.09-.28.28-.57.56-.85.84-5.19,1.77-10.39,3.54-15.58,5.31,5.49.5,10.63.99,14.93,4.57-.07,3.02-1.16,5.72-2.6,8.31-3.43,1.41-7.1,1.51-10.7,1.8-2.43.2-6.95,1.57-1.75-4.39-2.27.88-3.17,1.22-4.07,1.57-.97,0-1.99-.12-2.44,1.07,0,0,.08-.05.08-.05-.68.02-1.2.19-1.06,1.04,0,0,.05-.04.05-.04-8.16,2.95-16.74,3.46-25.27,4.25-2.03-.38-4.06-.76-6.09-1.13-2.42-5.7,3.58-6.44,5.96-9.49-2.64-1.14-5.1-.41-7.48-.68-.94-.28-1.86-.76-2.81-.81-5.58-.32-8.75-3.46-8.92-8.76-.29-9.15-1.86-17.74-7.74-25.12-.97-1.21-1.04-2.76-.53-4.28,7.92.87,13.18,4.86,15.01,12.85ZM651.75,258.68l.2-.29-.36-.02.16.31Z"/>
      <path class="cls-4" d="M432.1,177.78c.02,8.17.02,16.34.06,24.51,0,1.28-.33,2.68.93,3.65-1,7.9-1.64,15.8-.97,23.77.83,9.85,4.27,18.01,14.06,22.17,4.89,9.96,13.31,16.39,22.53,21.75,12.24,7.11,25.58,10.52,39.77,11.48,13.78.93,27.5,1.45,41.24-.04,1.04-.11,1.99.07,2.55,1.11-11.04,8.19-23.95,11.63-38.32,14.45,7.61,1.15,13.66-1.09,20.64-1.98-3.93,5.92-6.44,11.8-9.19,17.57-1.29-1.92-3.29-1.3-5.02-1.25-9.13.23-18.21-.21-27.18-2.04-2.62-4.19-5.23-8.38-8.12-12.99,6.8.84,13.02,3.03,19.49,1.7-1.14-1.76-3.13-1.67-5.03-1.96-37.39-5.73-65.5-30.63-73.72-65.74-4.54-19.37-2.87-38.22,6.28-56.15Z"/>
      <path class="cls-11" d="M469.26,467.8c9.04.52,18.08,1.04,27.13,1.56,3.15,8.17,2.47,16.26-.21,24.41-2.2,6.68-6.34,12.41-8.93,18.88-12.06,7.87-24.76,11.89-39.01,6.46-2.34-.89-4.51-2.08-6.11-4.1-1.1-5.46-2.28-10.87-1.98-16.55.62-11.73,2.5-14.81,11.09-17.82,1.98-.7,4.38.04,5.99-1.8,5.39.9,9.82,3.96,14.54,6.39,1.41.73,2.49,2.35,4.44,1.7,0,0-.04-.03-.04-.03.06.22.13.45.19.67.28-.22.55-.44.83-.66-.14-3.19-1.51-5.9-3-8.67-1.82-3.38-4.7-6.3-4.92-10.45Z"/>
      <path class="cls-11" d="M578.26,514.15c-5.74,6.02-12.99,7.65-20.95,7.16-1.16-4.57-5.52-5.85-8.75-8.12-5.05-3.55-9.8-7.27-13.06-12.63-5.51-9.05-6.36-19.24-7.25-29.42,8.83,0,17.59-.69,26.22-2.6.47,4.43-2.02,7.77-4.09,11.27-1.54,3.24-5.89,3.74-7.13,7.29,0,0,0-.16,0-.16-.9-.12-1.77-.17-1.97,1.04-2.23,3.96,1,2.82,2.59,2.56,7.07-1.15,14.13-2.25,21.34-1.78,10.2.68,16.45,9.16,14.29,19.12-.45,2.07-1.81,3.99-1.25,6.27Z"/>
      <path class="cls-1" d="M528.26,471.15c.89,10.18,1.74,20.37,7.25,29.42,3.26,5.36,8,9.08,13.06,12.63,3.23,2.27,7.59,3.55,8.75,8.12-22.43.47-41.46-17.85-41.09-39.91.2-12.02-1.94-11.01,12.03-10.26Z"/>
      <path class="cls-4" d="M423.88,308.11c6.45.33,11.37,4.42,16.75,7.17,11.74,6,21.9,13.82,27.1,26.63,2.33,5.74,3.59,11.74,4.36,17.8.75,5.91.82,11.9,1.19,17.86-3.32,1.02-6.64,2.02-9.96,3.05-2.19.68-2.98.07-2.74-2.35,1.48-14.77-.89-29.06-5.7-43.01.15-.16.31-.31.46-.47,1.06.37,2.12.75,3.18,1.09.1.03.26-.15.79-.48-1.03-2.87-3.6-4.44-5.77-6.24-8.61-7.14-18.47-12.49-27.42-19.15-.78-.58-1.49-1.26-2.24-1.9Z"/>
      <path class="cls-4" d="M471.2,394.88c.17,10.75-2.29,21.24-3.3,31.87-.82,8.69-2.04,17.33-1.69,26.08q-9.5-2.05-9.38-11.65c.14-13.8,1.52-27.54,2.37-41.3.12-1.93.57-3,2.73-3.27,3.11-.39,6.18-1.14,9.27-1.74Z"/>
      <path class="cls-4" d="M578.26,514.15c-.56-2.28.8-4.2,1.25-6.27,2.16-9.96-4.09-18.44-14.29-19.12-7.2-.48-14.26.63-21.34,1.78-1.6.26-4.82,1.4-2.6-2.56.69-.29,1.91.43,1.97-1.04,0,0,0,.17,0,.16,2.75.18,4.32-2.08,6.44-3.18,3.68-1.89,7.29-3.89,11.26-5.15,14.66-4.65,27.02,5.57,25.02,20.87-.74,5.71-3.02,10.8-7.73,14.5Z"/>
      <path class="cls-4" d="M587.33,283.85c-6.05,5.84-11.11,12.7-18.55,17.11-6.46,3.83-13.09,7.11-20.36,9.03,2.29-6.06,5.65-11.56,8.93-17.11,1.08-1.83,2.65-2.77,4.52-3.6,6.19-2.76,12.39-5.52,18.45-8.55,5.27-2.63,5.19-2.79,7.01,3.13Z"/>
      <path class="cls-4" d="M471.52,306.76c-13.7-3.16-25.39-10.33-36.45-18.61-2.99-2.23-6.52-4.11-8.09-7.87.24-2.94.98-4.26,4.25-2.3,8.42,5.05,17.4,9.03,26.7,12.14,3.72,1.24,6.31,3.14,8,6.7,1.63,3.43,3.71,6.65,5.59,9.96Z"/>
      <path class="cls-12" d="M511.79,490.83c-1.4-1.83-2.8-1.85-4.2,0,1-13.03-2.22-25.85-1.98-38.84.1-5.32.46-10.64.36-15.96-.06-3.05,1.45-3.01,3.71-2.94,2.15.06,3.61-.13,3.79,2.92.82,13.68.1,27.29-1.46,40.87-.53,4.65-.54,9.3-.21,13.95Z"/>
      <path class="cls-4" d="M531.03,422.62c1.95,9.84-1.11,19.29-2.23,28.9-.21,1.8-.42,3.6-.62,5.4-10.6,1.9-10.52,1.89-11.13-8.45-.29-4.8-2.2-9.87-1.13-14.27,1.06-4.38,7.59-4.21,10.64-7.68,1.29-1.48,2.97-2.61,4.48-3.89Z"/>
      <path class="cls-11" d="M535.93,337.89c-.65.25-1.04,1.08-2.04.25-3.25-2.7-5.52-6.43-9.3-8.6-.55-.32-.24-2.13-.32-3.25,2.75-3.77,2.85-8.76,5.76-12.46,4.82.33,9.24-2.3,14.07-1.88-2.98,8.57-6.37,17-8.16,25.94Z"/>
      <path class="cls-12" d="M443.99,276.6c-1.34,1.02-2.51.24-3.69-.38-7.06-3.72-14.08-7.51-21.18-11.13-1.94-.99-2.47-2.1-2.2-4.31.63-5.15,2.85-9.42,6.47-13.65,5.45,11.04,10.98,21.7,20.56,29.46l.03.02Z"/>
      <path class="cls-1" d="M544.09,311.95c-4.83-.41-9.25,2.21-14.07,1.88,1.32-5.75,4.92-10.39,7.66-15.43,1.3-2.38,4.12-2.83,6.45-3.22,3.41-.56,6.48-2.59,10.06-2.24l-.03-.03c-3.36,6.34-6.72,12.68-10.09,19.02Z"/>
      <path class="cls-12" d="M590.5,249.75c3.35,3.97,5.55,7.97,6.36,12.69.27,1.6.26,2.78-1.49,3.69-7.37,3.79-14.65,7.76-22.01,11.57-.79.41-1.91.17-3.39.26,4.88-4.03,8.42-8.55,11.82-13.2,3.33-4.56,5.93-9.56,8.72-15Z"/>
      <path class="cls-17" d="M526.27,384.35c-.35-.51-1.07-1.4-1-1.46,2.46-2.35,4.93-4.69,7.54-6.85.77-.63,1.42.52,2.08.93,5.41,5.22,12.29,7.65,19.2,10.01,1.1.37,2.22.7,3.35.94,2.28.48,2.26,2.39,2.08,3.91-.23,2.01-2.06,1.23-3.22,1.09-9.11-1.13-17.83-3.73-26.3-7.24-1.22-.5-2.49-.88-3.74-1.32Z"/>
      <path class="cls-1" d="M457.22,478.84c-1.6,1.83-4,1.1-5.99,1.8-8.59,3.01-10.47,6.08-11.09,17.82-.3,5.69.88,11.09,1.98,16.55-10.18-8.42-11.97-22.56-4-31.59,5.17-5.86,11.36-7.35,19.1-4.58Z"/>
      <path class="cls-4" d="M487.24,512.65c2.59-6.48,6.73-12.21,8.93-18.88,2.69-8.15,3.36-16.24.21-24.41,5-1.61,6.31.65,6.69,5.41,1.23,15.45-1.35,29.1-15.83,37.89Z"/>
      <path class="cls-1" d="M397.18,288.79c0-2.12.15-4.2-.58-6.3-1.17-3.41.15-5.01,3.8-4.46,7.34,2.71,12.64.11,14.85-7.25.28-.94-.23-2.82,1.66-2.22,1.6.51,1.48,1.97.72,3.3-4.68,8.22-9.72,16.19-16.55,22.84-2.66,2.59-4.8-.24-8.38-.57,2.4-1.64,4.05-2.53,5.4-3.75,1.56-1.4-.13-1.32-.92-1.58Z"/>
      <path class="cls-11" d="M497.14,327.24c-1.7,3.62-6.36,3.33-8.47,6.41-.41-.62-.83-1.24-1.24-1.86-1.41-5.88-4.37-11.08-7.18-16.35-.92-1.72-2.48-3.19-2.21-5.4,3.7-.57,6.95,1.8,10.59,1.62,3.7,4.72,5.05,10.72,8.52,15.57Z"/>
      <path class="cls-1" d="M613.36,280.91c2.37.27,4.84-.46,7.48.68-2.38,3.06-8.38,3.79-5.96,9.49.16,2.41,2.79,2.63,3.96,4.43-3.39,2.52-5.87,2.86-8.96-1.04-5.07-6.39-9.74-12.98-13.69-20.1-.75-1.36-1.77-3.04.1-3.83,2.69-1.13,1.74,1.67,2.11,2.7,2.66,7.53,7.8,10.22,14.97,7.66Z"/>
      <path class="cls-1" d="M469.26,467.8c.22,4.14,3.1,7.06,4.92,10.45,1.49,2.77,2.86,5.48,3,8.67-.34,0-.68,0-1.02-.01,0,0,.04.03.04.03-3.72-4.69-8.96-7.23-14.07-9.92-2.47-1.31-5.8-9.63-4.6-11.94.53-1.02,1.31-.66,2.11-.43,2.87.8,5.75,1.57,8.62,2.36.34.29.68.59,1.02.88l-.02-.08Z"/>
      <path class="cls-5" d="M483.31,376.06c4.6.04,6.26,4,8.9,6.66-6.39,3.44-12.73,6.99-20,8.34.02-3.31.04-6.61.06-9.92,3.66-1.74,7.83-2.38,11.04-5.08Z"/>
      <path class="cls-1" d="M488.63,311.66c-3.64.18-6.89-2.2-10.59-1.62,0,0,.13-.04.13-.04-.46-.34-.91-.68-1.37-1.01-3.23-4.74-6.46-9.47-10.06-14.76,11.35,1.68,18.54,7.2,21.89,17.44Z"/>
      <path class="cls-1" d="M472.27,381.15c-.02,3.3-.04,6.61-.06,9.92-1.53.58-3.02,1.29-4.58,1.72-7.92,2.15-7.78,2.13-7.53-5.72.09-2.92.98-4.06,3.96-4.23,2.76-.16,5.48-1.09,8.21-1.67Z"/>
      <path class="cls-4" d="M608.38,254.78c-1.83-7.99-7.09-11.97-15.01-12.85.2-1.34,1.07-1.88,2.34-2.12,6.12-1.13,14.75,4.8,16.52,10.89,1.21,4.15-2.58,2.74-3.85,4.07Z"/>
      <path class="cls-4" d="M648.37,233.34c-2.15-7.69-4.64-8.74-12.76-5.37,1.22-2.77,2.91-5.25,5.63-6.63,4.95-2.51,9.43.54,9.03,6.03-.15,2.13-.48,4.24-1.91,5.98Z"/>
      <path class="cls-4" d="M550.39,479.82c2.07-3.5,4.56-6.85,4.09-11.27,2.11-.85,4.21-1.7,6.37-2.57,1.54,8.55-.9,11.7-10.46,13.85Z"/>
      <path class="cls-4" d="M620.96,292.21c8.53-.79,17.1-1.3,25.27-4.25-7.66,5.97-16.02,7.73-25.27,4.25Z"/>
      <path class="cls-4" d="M665.17,247.19c-1.41-.95-.06-1.64.28-2.35,2.03-4.23,1.33-7.84-2.34-10.82,3.94-.93,6.77.94,7.6,4.44,1.02,4.3-1.93,6.92-5.54,8.73Z"/>
      <path class="cls-4" d="M349.78,252.89c-1.71.56-3.43,1.12-5.13,1.69-4.29,1.45-5.67,4.67-5.42,8.89-2.84-1.67-3.67-4.16-2.68-7.19,1.01-3.06,3.39-4.39,6.5-4.3,2.26.06,4.64-.58,6.72.91Z"/>
      <path class="cls-4" d="M358.21,234.83c-3.46.13-7-.83-10.37.59-1.93.81-3.28,2.24-3.91,4.28-1.85-5.05,1.27-9.29,6.48-8.56,2.91.41,5.66,1.49,7.8,3.69Z"/>
      <path class="cls-4" d="M415.38,250.21c-.06-4.18-.12-8.36-.18-12.54,2.05-1.23,3.81-.73,5.24,1.01,1.32,1.6.36,3.17-.38,4.61-1.27,2.49-2.43,5.09-4.69,6.92Z"/>
      <path class="cls-4" d="M670.16,268.01c3.27-4.17,5.06-8.44.94-13.13,4.14-.35,6.3,2.01,6.44,5.7.18,4.74-3.13,6.73-7.38,7.44Z"/>
      <path class="cls-4" d="M625.16,263.16c-2.25,1.64-4.2.08-5.87-.92-3.42-2.05-7.72-2.67-10.29-6.13,6.19.51,11.69,2.61,16.17,7.05Z"/>
      <path class="cls-4" d="M376.29,222.94c-4.26-1.49-8.51-1.99-12.77,0-.04-3.48,2.26-4.55,5.15-4.84,3.74-.37,6.4,1.15,7.62,4.83Z"/>
      <path class="cls-4" d="M403.99,253.95c-4.22,2.46-8.97,3.97-12.77,7.25-.99.85-2.68,1.62-3.81-.29.49-.13.98-.25.87-.94,0,0-.05.09-.05.09,5.01-2.65,9.49-6.68,15.76-6.11Z"/>
      <path class="cls-4" d="M666.13,286.96c1.44-2.59,2.53-5.29,2.6-8.31,4.22,3.85,3.45,6.31-2.6,8.31Z"/>
      <path class="cls-4" d="M346.21,275.86c-.76,2.28-1.6,4.55-1.45,7.02-3.49-3.41-3.17-4.92,1.45-7.02Z"/>
      <path class="cls-6" d="M647.17,287.01c.45-1.19,1.47-1.08,2.44-1.07-.64.76-1.32,1.41-2.44,1.07Z"/>
      <path class="cls-16" d="M360.9,229.45c.34.72.63,1.45.13,2.23-.47-.33-.93-.65-1.4-.98.42-.42.85-.83,1.27-1.25Z"/>
      <path class="cls-6" d="M377.37,224.29c-.38-.47-.77-.94-1.15-1.41.86.08,1.01.74,1.15,1.41Z"/>
      <path class="cls-16" d="M653.62,233.73c-.37.13-.99.46-1.08.35-.44-.53-.22-1.04.33-1.41.25.36.5.71.75,1.07Z"/>
      <path class="cls-6" d="M646.18,288c-.14-.85.39-1.02,1.06-1.04.18.89-.42.98-1.06,1.04Z"/>
      <path class="cls-3" d="M554.2,292.95c.13-.15.25-.3.38-.45-.02.09,0,.22-.05.27-.09.08-.23.11-.35.16,0,0,.03.03.03.03Z"/>
      <path class="cls-12" d="M443.95,276.58c-.11.3-.23.6-.34.9-.13-.12-.26-.23-.39-.35.25-.18.5-.36.76-.53,0,0-.03-.02-.03-.02Z"/>
      <path class="cls-6" d="M347.5,274.79c-.45.38-.9.76-1.35,1.14-.08-1,.69-1,1.35-1.14Z"/>
      <path class="cls-9" d="M454.87,335.27c-.43-.33-.7-.7-.12-1.11.03-.02.38.41.58.63-.15.16-.31.32-.46.47Z"/>
      <path class="cls-8" d="M469.28,467.87c-.34-.3-.68-.59-1.02-.88.34.3.68.59,1.02.88Z"/>
      <path class="cls-6" d="M669.38,268.77c.28-.28.57-.56.85-.84.2.76-.39.74-.85.84Z"/>
      <path class="cls-8" d="M476.8,308.98c.46.34.91.68,1.37,1.01-.79.11-1.06-.48-1.37-1.01Z"/>
      <path class="cls-10" d="M583.21,225.02c-.04,1.69-.09,3.39-.13,5.08-1.34.37-.89,1.57-1.1,2.44-3.3,13.83-10.62,18.4-24.79,15.43-.36-.34-.66-.8-1.08-.99-11.32-5.09-17.54-13.97-20.51-25.88-2.75-11.01-9.44-19.21-20.02-23.97-11.16-5.02-22.72-8.04-35.05-8.23-11.84-.18-23.79,3.22-35.52-.98.07-.49,0-1.05.22-1.47,11.91-23.36,30.18-38.47,56.68-41.36,44.81-4.9,76.96,32.61,80.3,70.86-.5,3.12.39,6.08,1,9.08ZM527.74,157.81c-1.39.1-3.79-.04-6.01.52-4.09,1.03-5,4.34-1.71,6.9,7.91,6.15,17.09,7.76,26.83,6.24,1.75-.27,3.72-1.31,3.89-3.38.17-1.94-1.28-3.22-2.87-4.34-5.78-4.09-12.24-5.79-20.15-5.93Z"/>
      <path class="cls-13" d="M582.21,215.94c-3.35-38.25-35.49-75.76-80.3-70.86-26.5,2.9-44.77,18.01-56.68,41.36-.21.42-.15.98-.22,1.47-7.41,14.93-9.68,30.65-6.71,47,1.49,8.19,5.66,11.59,13.93,12.6,5.52.68,10.98-.2,16.38-1.12,20.73-3.55,41.45-6.31,62.5-2.46,8.65,1.58,17.23,3.74,26.09,4.04,14.16,2.96,21.48-1.6,24.79-15.43.21-.87-.24-2.07,1.1-2.44,1.04,12.72-6.26,21.11-19.02,21.71-9.04.43-17.93-1.17-26.74-2.83-22.83-4.29-45.36-2.06-67.87,2.36-7.69,1.51-15.47,2.3-23.27.53-9.79-4.15-13.23-12.32-14.06-22.17-.67-7.97-.03-15.87.97-23.77,3.7-17.34,11.27-32.65,24.16-45.02,39.88-38.26,103.05-22.31,121.89,30.71,2.81,7.9,4.22,16.06,4.83,24.38-.59-.03-1.17-.05-1.76-.08Z"/>
      <path class="cls-4" d="M582.21,215.94c.59.02,1.17.05,1.76.08.53,3.07.82,6.11-.76,9-.61-3-1.5-5.96-1-9.08Z"/>
      <path class="cls-15" d="M388.29,259.97c.11.68-.38.81-.87.94.08-.51.14-1.03.87-.94Z"/>
      <path class="cls-15" d="M373.28,245.9c.17.17.34.34.51.5-.2-.14-.4-.29-.59-.43,0,0,.08-.07.08-.07Z"/>
      <path class="cls-15" d="M373.2,245.97c-.39-.27-.79-.54-1.18-.8.21-.22.43-.44.66-.65.2.46.4.92.61,1.38,0,0-.08.07-.08.07Z"/>
      <path class="cls-15" d="M641.33,248.12c-.23.2-.61.61-.68.57-.68-.44-.18-.76.17-1.09.17.17.34.34.51.52Z"/>
      <polygon class="cls-15" points="651.75 258.68 651.59 258.37 651.95 258.39 651.75 258.68"/>
      <path class="cls-15" d="M476.16,486.9c.34,0,.68,0,1.02.01-.28.22-.55.44-.83.66-.06-.22-.13-.45-.19-.67Z"/>
      <path class="cls-15" d="M543.26,486.94c-.06,1.47-1.28.75-1.97,1.04.2-1.21,1.07-1.15,1.97-1.04Z"/>
      <path class="cls-11" d="M557.2,247.98c-8.86-.3-17.44-2.46-26.09-4.04-21.06-3.85-41.77-1.08-62.5,2.46-5.4.92-10.86,1.8-16.38,1.12-8.27-1.01-12.44-4.41-13.93-12.6-2.97-16.34-.7-32.07,6.71-47,11.73,4.2,23.68.8,35.52.98,12.33.19,23.89,3.21,35.05,8.23,10.58,4.76,17.28,12.96,20.02,23.97,2.97,11.91,9.19,20.79,20.51,25.88.42.19.73.66,1.08.99Z"/>
      <path class="cls-2" d="M527.74,157.81c7.91.14,14.38,1.84,20.15,5.93,1.59,1.13,3.03,2.41,2.87,4.34-.18,2.08-2.15,3.11-3.89,3.38-9.75,1.52-18.93-.09-26.83-6.24-3.3-2.56-2.38-5.87,1.71-6.9,2.22-.56,4.61-.41,6.01-.52Z"/>
    </g>
  </g>
</svg>